<svg xmlns="http://www.w3.org/2000/svg" viewBox="0 0 64 64" width="64" height="64">
  <defs>
    <linearGradient id="grad1" x1="0%" y1="0%" x2="100%" y2="100%">
      <stop offset="0%" style="stop-color:#fbbf24;stop-opacity:1" />
      <stop offset="100%" style="stop-color:#10b981;stop-opacity:1" />
    </linearGradient>
  </defs>
  
  <!-- Background circle -->
  <circle cx="32" cy="32" r="30" fill="url(#grad1)"/>
  
  <!-- Building structure -->
  <rect x="18" y="24" width="28" height="28" fill="#ffffff" rx="2"/>
  
  <!-- Building windows -->
  <rect x="22" y="28" width="4" height="4" fill="#10b981" rx="0.5"/>
  <rect x="30" y="28" width="4" height="4" fill="#10b981" rx="0.5"/>
  <rect x="38" y="28" width="4" height="4" fill="#10b981" rx="0.5"/>
  
  <rect x="22" y="36" width="4" height="4" fill="#10b981" rx="0.5"/>
  <rect x="30" y="36" width="4" height="4" fill="#10b981" rx="0.5"/>
  <rect x="38" y="36" width="4" height="4" fill="#10b981" rx="0.5"/>
  
  <rect x="22" y="44" width="4" height="4" fill="#10b981" rx="0.5"/>
  <rect x="30" y="44" width="4" height="4" fill="#10b981" rx="0.5"/>
  <rect x="38" y="44" width="4" height="4" fill="#10b981" rx="0.5"/>
  
  <!-- Door -->
  <rect x="28" y="46" width="8" height="6" fill="#fbbf24" rx="1"/>
  
  <!-- Construction tool (hammer) -->
  <path d="M 12 20 L 16 16 L 20 20 L 18 22 L 14 18 Z" fill="#ffffff"/>
  <rect x="14" y="18" width="2" height="6" fill="#ffffff"/>
</svg>

